<?xml version="1.0" encoding="UTF-8" standalone="no"?>
<svg width="12px" height="20px" viewBox="0 0 12 20" version="1.1" xmlns="http://www.w3.org/2000/svg" xmlns:xlink="http://www.w3.org/1999/xlink" xmlns:sketch="http://www.bohemiancoding.com/sketch/ns">
    <!-- Generator: Sketch 3.4.2 (15855) - http://www.bohemiancoding.com/sketch -->
    <title>tumblr</title>
    <desc>Created with Sketch.</desc>
    <defs></defs>
    <g id="Page-1" stroke="none" stroke-width="1" fill="none" fill-rule="evenodd" sketch:type="MSPage">
        <g id="tumblr" sketch:type="MSLayerGroup" transform="translate(-4.000000, 0.000000)">
            <rect id="fill" fill-opacity="0" fill="#000000" sketch:type="MSShapeGroup" x="0" y="0" width="20" height="20"></rect>
            <path d="M11.865,19.958 C7.629,19.958 6.02,16.834 6.02,14.627 L6.02,8.105 L4,8.105 L4,5.527 C7.027,4.436 7.756,1.705 7.927,0.149 C7.938,0.042 8.022,0 8.07,0 L10.994,0 L10.994,5.084 L14.987,5.084 L14.987,8.105 L10.979,8.105 L10.979,14.318 C10.993,15.149 11.291,16.287 12.815,16.287 C12.843,16.287 12.872,16.287 12.9,16.286 C13.43,16.272 14.14,16.118 14.511,15.941 L15.471,18.788 C15.11,19.317 13.481,19.932 12.015,19.957 C11.964,19.958 11.915,19.958 11.865,19.958" id="white-logo" fill="#3B2E40" sketch:type="MSShapeGroup"></path>
        </g>
    </g>
</svg>
