<?xml version="1.0" encoding="UTF-8" standalone="no"?>
<svg width="274px" height="223px" viewBox="0 0 274 223" version="1.1" xmlns="http://www.w3.org/2000/svg" xmlns:xlink="http://www.w3.org/1999/xlink" xmlns:sketch="http://www.bohemiancoding.com/sketch/ns">
    <!-- Generator: Sketch 3.4.2 (15855) - http://www.bohemiancoding.com/sketch -->
    <title>twitter</title>
    <desc>Created with Sketch.</desc>
    <defs>
        <path id="path-1" d="M0.06,0.822 L274.06,0.822 L274.06,274.822 L0.06,274.822"></path>
    </defs>
    <g id="Page-1" stroke="none" stroke-width="1" fill="none" fill-rule="evenodd" sketch:type="MSPage">
        <g id="twitter" sketch:type="MSLayerGroup" transform="translate(0.000000, -26.000000)">
            <mask id="mask-2" sketch:name="Clip 2" fill="white">
                <use xlink:href="#path-1"></use>
            </mask>
            <g id="Clip-2"></g>
            <path d="M274,52.3596826 C263.918556,56.8306359 253.084436,59.8523629 241.71312,61.2113884 C253.31996,54.2538995 262.232803,43.2373743 266.430147,30.1111523 C255.568967,36.5524922 243.538184,41.2309074 230.733677,43.7525211 C220.478847,32.8271989 205.869322,26 189.701328,26 C158.655211,26 133.485175,51.1690319 133.485175,82.213143 C133.485175,86.6189514 133.983284,90.9095031 134.941417,95.0236621 C88.2214053,92.6794434 46.8001902,70.2996209 19.074465,36.2899076 C14.2356926,44.5923908 11.463521,54.2488884 11.463521,64.5508228 C11.463521,84.0532395 21.388617,101.259545 36.4721972,111.339986 C27.2566809,111.048337 18.5893851,108.519707 11.0095102,104.309334 C11.0055013,104.543856 11.0055013,104.779381 11.0055013,105.015907 C11.0055013,132.252542 30.3826402,154.973123 56.0988917,160.136618 C51.3813892,161.421479 46.4153334,162.108007 41.2879184,162.108007 C37.6658546,162.108007 34.144014,161.756224 30.7123743,161.099762 C37.8652987,183.433482 58.6255167,199.685663 83.2242803,200.139674 C63.9854494,215.216238 39.7464867,224.203245 13.4098541,224.203245 C8.87275321,224.203245 4.3977907,223.937654 0,223.418498 C24.877384,239.368005 54.4261677,248.673722 86.1718424,248.673722 C189.570035,248.673722 246.111913,163.016028 246.111913,88.7316547 C246.111913,86.2942285 246.057793,83.8698312 245.949552,81.4594652 C256.932002,73.5338209 266.463221,63.632779 274,52.3596826" id="Fill-1" fill="rgb(51, 51, 51)" sketch:type="MSShapeGroup" mask="url(#mask-2)"></path>
        </g>
    </g>
</svg>
