<?xml version="1.0" encoding="UTF-8" standalone="no"?>
<svg width="512px" height="512px" viewBox="0 0 512 512" version="1.1" xmlns="http://www.w3.org/2000/svg" xmlns:xlink="http://www.w3.org/1999/xlink">
    <!-- Generator: Sketch 3.6.1 (26313) - http://www.bohemiancoding.com/sketch -->
    <title>512</title>
    <desc>Created with Sketch.</desc>
    <defs></defs>
    <g id="Page-1" stroke="none" stroke-width="1" fill="none" fill-rule="evenodd">
        <g id="512" fill="#FFFFFF">
            <g id="Group" transform="translate(121.000000, 136.000000)">
                <path d="M135.763491,120.768366 C109.206303,120.768366 87.6006498,98.5664634 87.6006498,71.276378 C87.6006498,43.9862927 109.206303,21.7843902 135.763491,21.7843902 C162.317796,21.7843902 183.926332,43.9862927 183.926332,71.276378 C183.926332,98.5664634 162.317796,120.768366 135.763491,120.768366 L135.763491,120.768366 L135.763491,120.768366 Z M135.763491,35.6235366 C116.62928,35.6235366 101.065251,51.6170854 101.065251,71.276378 C101.065251,90.9356707 116.62928,106.932183 135.763491,106.932183 C154.891934,106.932183 170.458847,90.9386341 170.458847,71.276378 C170.458847,51.614122 154.891934,35.6235366 135.763491,35.6235366 L135.763491,35.6235366 L135.763491,35.6235366 Z" id="Shape"></path>
                <path d="M135.763491,99.2895366 C120.73297,99.2895366 108.502648,86.7216951 108.502648,71.276378 C108.502648,55.831061 120.73297,43.2632195 135.763491,43.2632195 C150.791128,43.2632195 163.024334,55.8280976 163.024334,71.276378 C163.02145,86.7216951 150.791128,99.2895366 135.763491,99.2895366 L135.763491,99.2895366 L135.763491,99.2895366 Z M135.763491,50.1827927 C124.444459,50.1827927 115.233507,59.6449756 115.233507,71.276378 C115.233507,82.9077805 124.444459,92.3699634 135.763491,92.3699634 C147.082523,92.3699634 156.290591,82.9077805 156.290591,71.276378 C156.287708,59.6449756 147.082523,50.1827927 135.763491,50.1827927 L135.763491,50.1827927 L135.763491,50.1827927 Z" id="Shape"></path>
                <ellipse id="Oval" cx="61.9028426" cy="101.064622" rx="11.3421026" ry="11.6551098"></ellipse>
                <path d="M61.9028426,119.425939 C52.0487962,119.425939 44.0346332,111.187646 44.0346332,101.061659 C44.0346332,90.9356707 52.05168,82.697378 61.9028426,82.697378 C71.7568889,82.697378 79.7739357,90.9356707 79.7739357,101.061659 C79.7739357,111.187646 71.7568889,119.425939 61.9028426,119.425939 L61.9028426,119.425939 L61.9028426,119.425939 Z M61.9028426,86.1586463 C53.9059826,86.1586463 47.4000626,92.8441098 47.4000626,101.061659 C47.4000626,109.282171 53.9059826,115.967634 61.9028426,115.967634 C69.8997026,115.967634 76.4056226,109.282171 76.4056226,101.061659 C76.4056226,92.8441098 69.8997026,86.1586463 61.9028426,86.1586463 L61.9028426,86.1586463 L61.9028426,86.1586463 Z" id="Shape"></path>
                <ellipse id="Oval" cx="202.405914" cy="96.2312927" rx="11.8525404" ry="12.1796341"></ellipse>
                <path d="M227.561561,66.5112073 L192.776806,66.5112073 C190.916736,66.5112073 189.411377,64.9613415 189.411377,63.0529024 L189.411377,26.3895366 C189.411377,24.4781341 190.916736,22.9312317 192.776806,22.9312317 L227.561561,22.9312317 C229.424515,22.9312317 230.92699,24.4781341 230.92699,26.3895366 L230.92699,63.0529024 C230.92699,64.9613415 229.424515,66.5112073 227.561561,66.5112073 L227.561561,66.5112073 L227.561561,66.5112073 Z M196.145119,59.5916341 L224.199015,59.5916341 L224.199015,29.8478415 L196.145119,29.8478415 L196.145119,59.5916341 L196.145119,59.5916341 L196.145119,59.5916341 Z" id="Shape"></path>
                <path d="M79.2981038,76.4060488 L44.5133489,76.4060488 C42.6532787,76.4060488 41.1479196,74.8561829 41.1479196,72.9477439 L41.1479196,60.0450366 C41.1479196,58.1336341 42.6532787,56.5867317 44.5133489,56.5867317 L79.2981038,56.5867317 C81.158174,56.5867317 82.6635332,58.1365976 82.6635332,60.0450366 L82.6635332,72.9477439 C82.6635332,74.8561829 81.1552902,76.4060488 79.2981038,76.4060488 L79.2981038,76.4060488 L79.2981038,76.4060488 Z" id="Shape"></path>
                <path d="M269.325184,161.568659 C269.316532,161.029317 269.238669,160.513683 269.120432,160.012866 C269.08871,159.864695 269.036801,159.725415 268.993543,159.580207 C268.866655,159.17422 268.713812,158.788976 268.523479,158.421512 C268.480222,158.3415 268.462919,158.243707 268.416777,158.163695 L252.624926,130.29278 L249.657465,23.8884146 C250.470705,23.7669146 251.110915,23.0794024 251.110915,22.2051951 L251.110915,19.8996585 C251.110915,18.9691463 250.389957,18.2253293 249.498854,18.1838415 L249.302754,11.1664756 C249.196052,7.42368293 246.214172,4.44545122 242.571895,4.44545122 L182.167196,4.44545122 C181.08576,2.10731707 178.787348,0.483365854 176.102502,0.483365854 L93.2414209,0.483365854 C90.5565753,0.483365854 88.258163,2.11028049 87.1767268,4.44545122 L27.1209715,4.44545122 C23.4786945,4.44545122 20.4968145,7.42368293 20.3929966,11.1664756 L20.1968962,18.1542073 C19.3086766,18.201622 18.6021383,18.9424756 18.6021383,19.8640976 L18.6021383,22.1725976 C18.6021383,23.0379146 19.2308132,23.7254268 20.0411694,23.8498902 L17.0938953,129.643793 L0.932913191,158.166659 C0.886771915,158.246671 0.872352766,158.3415 0.829095319,158.424476 C0.638762553,158.794902 0.480151915,159.180146 0.356147234,159.592061 C0.312889787,159.734305 0.263864681,159.867659 0.229258723,160.009902 C0.108137872,160.516646 0.0302744681,161.041171 0.0273906383,161.583476 C0.0273906383,161.601256 0.0216229787,161.622 0.0216229787,161.63978 L0.0216229787,161.651634 L0.0216229787,188.932829 C0.0216229787,189.155085 0.0677642553,189.365488 0.085067234,189.587744 C0.0216229787,190.079671 0.00143617021,190.577524 0.0418097872,191.081305 L3.40723915,232.545402 C3.69850596,236.134098 6.6169417,238.890073 10.1179111,238.890073 L259.23178,238.890073 C262.732749,238.890073 265.651185,236.134098 265.939568,232.545402 L269.307881,191.081305 C269.351138,190.577524 269.330951,190.079671 269.264623,189.587744 C269.287694,189.368451 269.328068,189.155085 269.328068,188.932829 L269.328068,161.651634 L269.328068,161.642744 C269.330951,161.616073 269.325184,161.592366 269.325184,161.568659 L269.325184,161.568659 Z M90.4296868,18.2786707 L178.914236,18.2786707 L236.031369,18.2786707 L239.001714,125.017902 L30.6882689,125.017902 L33.6643813,18.2786707 L90.4296868,18.2786707 L90.4296868,18.2786707 Z M27.3401426,139.049671 L242.00378,139.049671 L250.885976,154.726134 L18.4579468,154.726134 L27.3401426,139.049671 L27.3401426,139.049671 Z M13.4833404,168.562317 L255.86635,168.562317 L255.86635,182.007329 L13.4833404,182.007329 L13.4833404,168.562317 L13.4833404,168.562317 Z M253.588125,217.00822 L17.9359736,217.00822 C16.0759034,217.00822 14.5705443,215.461317 14.5705443,213.546951 C14.5705443,211.635549 16.0759034,210.088646 17.9359736,210.088646 L253.585241,210.088646 C255.445311,210.088646 256.95067,211.635549 256.95067,213.546951 C256.953554,215.461317 255.445311,217.00822 253.588125,217.00822 L253.588125,217.00822 Z" id="Shape"></path>
                <path d="M116.750401,162.256171 C116.56872,162.256171 116.381271,162.223573 116.196706,162.158378 C115.320022,161.844256 114.858609,160.860402 115.164295,159.956561 L125.1683,130.520963 L125.1683,115.327537 C125.1683,114.373317 125.92098,113.599866 126.852457,113.599866 C127.78105,113.599866 128.53373,114.373317 128.53373,115.327537 L128.53373,130.814341 C128.53373,131.006963 128.502008,131.205512 128.438563,131.38628 L121.223221,161.097476 C120.98098,161.811659 117.445404,162.256171 116.750401,162.256171 L116.750401,162.256171 L116.750401,162.256171 Z" id="Shape"></path>
                <path d="M123.988814,162.256171 C123.864809,162.256171 123.735037,162.241354 123.605265,162.21172 C122.699742,161.99539 122.137395,161.061915 122.347915,160.134366 L129.035516,130.615793 L129.035516,115.327537 C129.035516,114.373317 129.788196,113.599866 130.719673,113.599866 C131.648266,113.599866 132.400946,114.373317 132.400946,115.327537 L132.400946,130.814341 C132.400946,130.947695 132.386526,131.078085 132.354804,131.208476 L128.507775,160.919671 C128.331862,161.716829 124.753029,162.256171 123.988814,162.256171 L123.988814,162.256171 L123.988814,162.256171 Z" id="Shape"></path>
                <path d="M131.227227,162.256171 C131.163783,162.256171 131.097454,162.253207 131.031126,162.244317 C130.108301,162.134671 129.44502,161.27528 129.554606,160.326988 L132.920035,130.618756 L132.9085,115.3305 C132.9085,114.37628 133.661179,113.602829 134.592656,113.602829 C135.521249,113.602829 136.273929,114.37628 136.273929,115.3305 L136.273929,130.817305 L135.780794,160.730012 C135.67986,161.610146 132.069305,162.256171 131.227227,162.256171 L131.227227,162.256171 L131.227227,162.256171 Z" id="Shape"></path>
                <path d="M141.828185,162.256171 C140.986107,162.256171 137.375552,161.607183 137.274618,160.724085 L136.793018,131.01289 L136.781483,115.327537 C136.781483,114.373317 137.534163,113.599866 138.462756,113.599866 C139.391349,113.599866 140.146912,114.373317 140.146912,115.327537 L140.146912,130.814341 L143.50369,160.326988 C143.607508,161.27528 142.947111,162.134671 142.021402,162.244317 C141.960841,162.253207 141.894513,162.256171 141.828185,162.256171 L141.828185,162.256171 L141.828185,162.256171 Z" id="Shape"></path>
                <path d="M149.066598,162.256171 C148.299499,162.256171 144.720666,161.713866 144.541869,160.919671 L140.691956,131.208476 C140.663118,131.078085 140.648699,130.947695 140.648699,130.814341 L140.648699,115.327537 C140.648699,114.373317 141.404262,113.599866 142.332855,113.599866 C143.261449,113.599866 144.017012,114.373317 144.017012,115.327537 L144.017012,130.615793 L150.704613,160.134366 C150.915133,161.061915 150.352786,161.99539 149.44438,162.21172 C149.320375,162.244317 149.190603,162.256171 149.066598,162.256171 L149.066598,162.256171 L149.066598,162.256171 Z" id="Shape"></path>
                <path d="M156.305011,162.256171 C155.610008,162.256171 152.071549,161.811659 151.832191,161.094512 L144.616849,131.38628 C144.556288,131.202549 144.521682,131.006963 144.521682,130.814341 L144.521682,115.327537 C144.521682,114.373317 145.277246,113.599866 146.205839,113.599866 C147.134432,113.599866 147.889995,114.373317 147.889995,115.327537 L147.889995,130.520963 L157.894001,159.956561 C158.202571,160.860402 157.738274,161.844256 156.86159,162.158378 C156.677025,162.226537 156.489576,162.256171 156.305011,162.256171 L156.305011,162.256171 L156.305011,162.256171 Z" id="Shape"></path>
                <path d="M120.761809,186.799171 L114.994149,186.799171 L114.994149,163.06222 L120.761809,163.06222 L120.761809,186.799171 L120.761809,186.799171 Z" id="Shape"></path>
                <path d="M128.118458,186.799171 L122.350799,186.799171 L122.350799,163.06222 L128.118458,163.06222 L128.118458,186.799171 L128.118458,186.799171 Z" id="Shape"></path>
                <path d="M135.46934,186.799171 L129.701681,186.799171 L129.701681,163.06222 L135.46934,163.06222 L135.46934,186.799171 L135.46934,186.799171 Z" id="Shape"></path>
                <path d="M142.817339,186.799171 L137.049679,186.799171 L137.049679,163.06222 L142.817339,163.06222 L142.817339,186.799171 L142.817339,186.799171 Z" id="Shape"></path>
                <path d="M150.176872,186.799171 L144.409213,186.799171 L144.409213,163.06222 L150.176872,163.06222 L150.176872,186.799171 L150.176872,186.799171 Z" id="Shape"></path>
                <path d="M157.530638,186.799171 L151.762979,186.799171 L151.762979,163.06222 L157.530638,163.06222 L157.530638,186.799171 L157.530638,186.799171 Z" id="Shape"></path>
            </g>
        </g>
    </g>
</svg>