<?xml version="1.0" encoding="UTF-8" standalone="no"?>
<svg width="512px" height="512px" viewBox="0 0 512 512" version="1.1" xmlns="http://www.w3.org/2000/svg" xmlns:xlink="http://www.w3.org/1999/xlink">
    <!-- Generator: Sketch 3.6.1 (26313) - http://www.bohemiancoding.com/sketch -->
    <title>512</title>
    <desc>Created with Sketch.</desc>
    <defs></defs>
    <g id="Page-1" stroke="none" stroke-width="1" fill="none" fill-rule="evenodd">
        <g id="512" fill="#FFFFFF">
            <path d="M130.604844,420.799373 C118.483806,419.241362 118.457462,419.209955 119.324105,407.352313 C120.31081,393.85197 123.100987,372.810125 124.484695,368.434212 C125.923764,363.883195 130.532536,360.057538 140.543601,355.103905 C144.955731,352.920725 148.565661,350.528779 148.565661,349.788458 C148.565661,348.991586 146.657688,348.304392 143.888961,348.104075 L139.21226,347.765694 L139.21226,340.062898 L139.21226,332.360103 L152.417061,332.049636 C164.822969,331.757937 165.691613,331.591507 166.774827,329.298627 C167.408965,327.956343 169.453091,323.887022 171.317332,320.255688 C173.181563,316.624377 176.731752,309.444279 179.206617,304.299909 C181.681494,299.155537 185.435949,291.975428 187.549839,288.344108 C189.663739,284.712788 191.744045,280.998939 192.17274,280.091108 C192.601434,279.183279 194.230555,276.451623 195.793022,274.020753 C198.925674,269.147005 198.897725,269.191989 207.063406,255.88231 C217.162085,239.421921 223.319583,231.739808 249.399898,203.063111 C265.950872,184.864426 278.838504,172.120035 289.967057,162.946824 C294.203596,159.454674 303.758271,150.898809 311.199664,143.933796 C318.641063,136.96878 324.977332,131.517993 325.280273,131.820934 C325.583215,132.123874 324.056544,136.018036 321.887648,140.474623 C319.718752,144.931198 318.100202,149.57142 318.290853,150.786205 C318.51566,152.218631 320.870227,148.522694 324.990197,140.270343 C330.970713,128.291246 331.7882,127.212525 338.943848,121.857637 C343.124379,118.729156 351.146112,113.761473 356.76993,110.818339 C368.303091,104.782641 376.463475,100.049686 384.787925,94.5681186 C394.511164,88.1654634 394.87665,89.83764 386.855344,104.027112 C384.289353,108.566262 380.956523,115.003597 379.449025,118.332309 C377.941549,121.661018 372.836693,131.564617 368.104915,140.340306 C357.641287,159.7464 354.945972,164.771476 348.922513,176.103307 C344.135604,185.108837 340.993604,189.247299 337.523137,191.117845 C336.444074,191.699451 328.768788,194.547848 320.466936,197.447627 C312.165084,200.347413 303.301736,203.780451 300.770619,205.076611 C292.607951,209.256612 293.683206,211.476428 301.971693,207.556165 C309.363454,204.06004 334.360815,195.921483 335.182763,196.743426 C336.365488,197.926147 326.223434,211.020599 299.179298,243.227711 C295.113694,248.06947 287.873611,256.73512 283.090227,262.48471 C274.047449,273.354065 268.711786,277.855372 264.770229,277.939937 C263.49798,277.967237 260.971516,278.669788 259.155858,279.501174 L255.854658,281.012759 L261.081558,281.102135 C263.956351,281.151289 266.308456,281.607229 266.308456,282.11534 C266.308456,282.956738 260.500722,287.893582 248.314651,297.410899 C237.808208,305.616427 219.541129,314.783161 199.43132,321.9414 C196.238607,323.077871 190.55524,325.639423 186.801621,327.63371 L179.976852,331.259704 L187.654762,331.809892 L195.332659,332.360103 L195.332659,340.062898 L195.332659,347.765694 L191.206159,348.107229 C187.012635,348.454285 185.786512,350.364579 188.45516,352.393269 C189.211685,352.968399 192.30656,354.335916 195.332659,355.432215 C198.749665,356.670139 202.711159,359.348196 205.78646,362.499207 C210.522823,367.352153 210.82224,368.051649 212.668526,378.576897 C213.730169,384.629105 214.918932,395.87834 215.310212,403.575209 L216.021642,417.569506 L213.153669,418.659902 C205.016575,421.753619 149.269267,423.198438 130.604844,420.799373 L130.604844,420.799373 Z" id="path1910"></path>
        </g>
    </g>
</svg>