<?xml version="1.0" standalone="no"?>
<!DOCTYPE svg PUBLIC "-//W3C//DTD SVG 20010904//EN"
 "http://www.w3.org/TR/2001/REC-SVG-20010904/DTD/svg10.dtd">
<svg version="1.0" xmlns="http://www.w3.org/2000/svg"
 width="900.000000pt" height="900.000000pt" viewBox="0 0 900.000000 900.000000"
 preserveAspectRatio="xMidYMid meet">
<metadata>
Created by potrace 1.11, written by Peter Selinger 2001-2013
</metadata>
<g transform="translate(0.000000,900.000000) scale(0.100000,-0.100000)"
fill="#000000" stroke="none">
<path d="M0 4500 l0 -4500 4500 0 4500 0 0 4500 0 4500 -4500 0 -4500 0 0
-4500z m6070 1324 c265 -41 519 -180 634 -346 74 -108 126 -283 126 -424 l0
-64 -165 0 c-124 0 -167 3 -169 13 -2 6 -11 48 -21 92 -38 174 -123 289 -265
358 -127 62 -179 72 -400 72 -188 0 -198 -1 -284 -29 -136 -45 -227 -123 -284
-246 -20 -43 -27 -75 -30 -146 -5 -111 12 -171 65 -233 83 -98 194 -137 754
-266 157 -36 325 -78 372 -94 253 -86 398 -215 471 -421 29 -82 31 -92 31
-250 0 -143 -3 -176 -23 -245 -67 -229 -209 -372 -480 -479 -355 -141 -852
-133 -1152 19 -290 147 -458 410 -472 740 l-3 80 167 3 167 2 6 -37 c30 -212
73 -313 172 -411 79 -78 152 -120 278 -158 85 -26 101 -28 290 -28 185 0 207
2 298 27 192 52 309 132 369 255 31 63 33 72 33 177 0 136 -18 194 -82 265
-87 97 -234 151 -693 255 -469 107 -634 170 -754 290 -113 113 -160 243 -159
440 5 570 501 896 1203 789z m-2550 -66 c274 -56 472 -179 632 -393 165 -219
245 -479 255 -825 10 -338 -39 -592 -167 -855 -171 -354 -432 -542 -815 -585
-50 -5 -343 -10 -662 -10 l-573 0 0 1346 0 1345 628 -4 c509 -3 641 -7 702
-19z"/>
<path d="M2560 4434 l0 -1036 418 4 c390 4 422 6 495 26 120 33 191 75 288
172 187 186 280 463 280 834 -1 267 -37 450 -127 634 -47 97 -67 125 -132 191
-116 117 -251 178 -442 201 -46 5 -241 10 -432 10 l-348 0 0 -1036z"/>
</g>
</svg>
