<?xml version="1.0" standalone="no"?>
<!DOCTYPE svg PUBLIC "-//W3C//DTD SVG 20010904//EN"
 "http://www.w3.org/TR/2001/REC-SVG-20010904/DTD/svg10.dtd">
<svg version="1.0" xmlns="http://www.w3.org/2000/svg"
 width="400.000000pt" height="400.000000pt" viewBox="0 0 400.000000 400.000000"
 preserveAspectRatio="xMidYMid meet">
<metadata>
Created by potrace 1.11, written by Peter Selinger 2001-2013
</metadata>
<g transform="translate(0.000000,400.000000) scale(0.100000,-0.100000)"
fill="#000000" stroke="none">
<path d="M5 3988 c-3 -7 -4 -906 -3 -1998 l3 -1985 1995 0 1995 0 0 1995 0
1995 -1993 3 c-1589 2 -1994 0 -1997 -10z m3263 -947 c263 -65 433 -241 477
-495 8 -49 15 -95 15 -103 0 -11 -23 -13 -127 -11 l-126 3 -13 60 c-42 202
-174 316 -404 346 -243 33 -458 -47 -530 -197 -26 -53 -36 -164 -21 -222 14
-52 66 -111 127 -147 68 -40 159 -68 406 -125 373 -86 525 -148 632 -254 58
-59 110 -149 126 -221 18 -81 14 -231 -9 -306 -60 -192 -236 -340 -486 -406
-91 -24 -116 -26 -290 -26 -174 0 -198 2 -290 26 -333 89 -519 294 -551 610
l-7 67 125 0 124 0 11 -70 c43 -277 287 -434 647 -417 188 9 297 47 383 133
57 58 83 118 90 207 6 86 -6 139 -47 195 -71 98 -177 144 -517 223 -380 88
-509 138 -616 238 -93 87 -128 174 -129 321 0 141 23 219 100 328 91 131 270
229 477 262 96 15 327 4 423 -19z m-2052 -36 c222 -33 373 -104 510 -240 78
-77 98 -105 137 -185 78 -159 107 -308 107 -545 0 -516 -172 -837 -523 -981
-169 -68 -314 -83 -819 -84 l-338 0 0 1025 0 1025 411 0 c319 0 435 -3 515
-15z"/>
<path d="M550 2000 l0 -801 318 3 c299 4 321 5 382 27 222 77 356 225 419 461
69 255 47 597 -51 797 -46 94 -151 200 -241 242 -126 59 -161 64 -509 68
l-318 5 0 -802z"/>
</g>
</svg>
