<?xml version="1.0" standalone="no"?>
<!DOCTYPE svg PUBLIC "-//W3C//DTD SVG 20010904//EN"
 "http://www.w3.org/TR/2001/REC-SVG-20010904/DTD/svg10.dtd">
<svg version="1.0" xmlns="http://www.w3.org/2000/svg"
 width="900.000000pt" height="900.000000pt" viewBox="0 0 900.000000 900.000000"
 preserveAspectRatio="xMidYMid meet">
<metadata>
Created by potrace 1.11, written by Peter Selinger 2001-2013
</metadata>
<g transform="translate(0.000000,900.000000) scale(0.100000,-0.100000)"
fill="#000000" stroke="none">
<path d="M800 8993 c-399 -39 -701 -311 -782 -703 -20 -97 -20 -7483 0 -7580
74 -359 333 -618 692 -692 97 -20 7483 -20 7580 0 359 74 618 333 692 692 20
97 20 7483 0 7580 -45 217 -154 394 -322 525 -100 77 -196 123 -340 162 -62
17 -265 18 -3775 19 -2041 0 -3726 -1 -3745 -3z m5319 -3173 c230 -47 432
-154 548 -292 97 -114 154 -268 169 -454 l7 -84 -176 0 -176 0 -7 48 c-10 66
-50 187 -80 237 -59 101 -184 187 -333 227 -64 18 -105 21 -256 21 -203 0
-290 -16 -390 -73 -140 -80 -225 -242 -212 -401 7 -86 34 -146 87 -198 80 -78
209 -121 690 -231 173 -40 356 -86 405 -102 316 -104 479 -286 515 -574 29
-231 -36 -473 -166 -613 -72 -78 -128 -118 -239 -174 -198 -98 -421 -147 -670
-147 -351 0 -617 93 -811 285 -157 155 -235 333 -251 567 l-6 98 175 0 175 0
6 -62 c23 -230 131 -400 310 -488 102 -50 171 -68 315 -82 266 -28 558 44 691
171 93 88 135 228 112 368 -37 216 -152 289 -636 402 -121 28 -269 63 -330 77
-427 101 -608 221 -693 458 -23 64 -26 86 -26 221 0 156 4 185 51 309 69 184
240 354 433 432 77 32 196 62 285 74 116 15 366 5 484 -20z m-2569 -64 c221
-52 371 -135 517 -284 204 -208 315 -488 344 -867 37 -475 -114 -964 -378
-1228 -123 -123 -267 -205 -451 -255 l-97 -26 -647 -4 -648 -3 0 1346 0 1346
643 -4 c572 -3 650 -5 717 -21z"/>
<path d="M2560 4430 l0 -1032 408 5 c458 6 493 10 627 76 191 95 324 281 394
552 83 323 61 715 -54 989 -89 212 -230 341 -441 407 l-89 27 -422 4 -423 3 0
-1031z"/>
</g>
</svg>
